<?xml version="1.0" encoding="UTF-8"?>
<svg id="Layer_1" data-name="Layer 1" xmlns="http://www.w3.org/2000/svg" viewBox="0 0 87.26 30.93">
  <defs>
    <style>
      .cls-1 {
        fill: #282561;
      }

      .cls-2 {
        fill: #00afb8;
      }

      .cls-2, .cls-3, .cls-4 {
        fill-rule: evenodd;
      }

      .cls-5 {
        fill: #fff;
      }

      .cls-3 {
        fill: #ec2227;
      }

      .cls-4 {
        fill: #fde7da;
      }
    </style>
  </defs>
  <path class="cls-5" d="M47.37,4.93c-.07-.29-.19-.55-.35-.78-.15-.22-.34-.4-.57-.54-.23-.14-.5-.23-.8-.28-.32-.05-.66-.05-1.02-.01-.34.04-.7.13-1.05.24-.39.13-.78.29-1.15.47-.36.18-.69.36-1.04.59-.09.06-.18.12-.27.18l-.89.67s0,0,0,0c.09-.29.12-.48.12-.48-2.05-2.44-5.21-.33-5.82.41-.61.73-2.35,2.91-3.08,3.77-.73.86-3.3,1.74-3.3,1.74,0,0,1.09.09,2.68-.03-.38.07-.77.13-1.17.18-.73.08-1.51.13-2.29.13-.73,0-1.46-.04-2.15-.14-.21-.03-.41-.06-.62-.1.79.25,1.6.48,2.49.65.57.1,1.17.18,1.81.22.65.04,1.33.04,2.07-.01.73-.05,1.51-.15,2.29-.29.79-.14,1.6-.32,2.35-.53.72-.2,1.39-.42,2.02-.67.69-.26,1.33-.55,1.92-.85.57-.29,1.09-.58,1.54-.85.45-.27.84-.53,1.15-.74.31-.21.53-.37.71-.5.17-.13.31-.24.46-.36.13-.1.31-.08.42.04.1.13.08.31-.04.42-.14.11-.28.23-.47.37-.19.14-.42.31-.73.52-.31.21-.71.47-1.18.75-.47.28-1,.58-1.58.87-.6.3-1.26.6-1.97.87-.65.25-1.35.48-2.08.69-.77.21-1.59.4-2.41.54-.8.14-1.6.24-2.35.29-.76.05-1.48.06-2.14.02-.68-.04-1.3-.12-1.89-.23-.44-.08-.85-.18-1.25-.28.16.06.31.12.47.18.64.23,1.31.44,2.01.62.67.17,1.35.31,2.03.42.68.1,1.35.17,2.02.21.69.04,1.37.04,2,0,.62-.03,1.21-.09,1.77-.18.56-.09,1.11-.2,1.67-.34.55-.13,1.1-.28,1.68-.48l.08-.02.81-.3c.31-.12.63-.26.96-.42.69-.32,1.44-.72,2.14-1.15.66-.39,1.28-.82,1.81-1.23.53-.42.95-.82,1.28-1.22.1-.12.19-.24.27-.35l.43-.75v-.02c.16-.35.25-.68.29-1,.04-.33.02-.65-.05-.95M33.14,6.96c.49-.94-.13-2.06-.13-2.06.6-.38.58-1.33.02-2.12-.56-.78-1.61-.37-1.61-.37,0,0-.78-.95-2.18-1.64-1.39-.69-3.16-.17-4.52.37-1.37.54-2.4,2.23-2.4,2.23,0,0,2.51,2.24,3.89,4,1.38,1.76,6.44.54,6.93-.4"/>
  <path class="cls-2" d="M28.95,11.79c.41-.04,1.05-.09,1.81-.23.76-.14,1.63-.37,2.5-.69.87-.32,1.72-.74,2.56-1.25.85-.5,1.68-1.1,2.7-1.87,1.02-.77,2.22-1.73,3.23-2.38,1.01-.66,1.81-1.02,2.53-1.17.72-.16,1.34-.11,1.81.06.47.16.78.44,1.01.75.24.31.4.65.37,1.19-.04.54-.28,1.26-.97,2.07-.69.8-1.83,1.68-3.04,2.4-1.21.72-2.47,1.28-3.51,1.69-1.04.41-1.84.66-2.93.87-1.09.21-2.46.38-4.12.3-1.66-.08-3.61-.41-5.05-.77-1.44-.35-2.38-.72-2.87-.95-.49-.23-.54-.31-.36-.32.17-.01.57.05,1.19.13.62.08,1.48.2,2.01.23.53.04.72,0,1.14-.04"/>
  <path class="cls-4" d="M25.36,1.91c.6-.5,3.01-1.15,4.64.32.31.28.57.6.78.86.2.25.35.44.63.64.28.2.69.42.98.66.29.24.45.5.56.83.11.33.15.72.13,1.07,0,.15-.03.3-.08.45-.18.23-.35.45-.51.66-.43.55-.77.96-1.18,1.34-.4.38-.86.72-1.35.97-.49.25-1,.42-1.45.52-.45.1-.84.13-1.23.13-.39,0-.77-.03-1.15-.1-.37-.07-.74-.19-1.1-.37-.36-.18-.72-.42-1.06-.75-.35-.33-.68-.75-.96-1.22-.28-.47-.51-1-.61-1.55-.11-.55-.09-1.14.01-1.66.1-.53.3-1,.57-1.43.24-.4.55-.76.88-1.07.03-.02.07-.03.1-.04.28-.12.49-.13.7-.09.21.04.42.14.58.31.16.16.28.4.31.64.03.33-.09.61-.29.8-.48.45-1.38.22-1.37-.42,0-.19.09-.38.15-.5.06-.12.11-.16.05-.15-.06.02-.21.09-.33.23-.12.14-.19.34-.19.57,0,.23.1.49.27.68.17.19.41.31.7.33.59.04,1.24-.28,1.48-.83.12-.27.17-.61.09-.92-.07-.31-.26-.59-.52-.76-.07-.05-.16-.09-.24-.12"/>
  <path class="cls-3" d="M31.77,10.17c.32-.29.81-.79,1.43-1.53.62-.74,1.36-1.71,1.93-2.35.58-.64.99-.94,1.44-1.13.44-.19.91-.27,1.33-.25.41.01.77.11,1.08.22.31.11.57.23.68.3.12.08.08.11-.32.45-.41.34-1.19.98-2.16,1.66-.96.68-2.11,1.41-3.03,1.9-.92.49-1.62.73-2.08.88-.46.15-.7.22-.74.21-.04,0,.11-.09.43-.38"/>
  <path class="cls-1" d="M34.81,22.31c0,2.35-.67,4.32-1.99,5.91-1.43,1.69-3.28,2.53-5.56,2.53-1.56,0-2.94-.45-4.14-1.34-1.2-.89-2.04-2.08-2.53-3.57-.31-.92-.46-1.93-.46-3.03l-.04-.31c0-2.33.67-4.28,1.99-5.87,1.43-1.66,3.28-2.49,5.56-2.49s4,.82,5.33,2.45c1.23,1.53,1.84,3.44,1.84,5.71M32.21,22.38c0-1.76-.33-3.32-1-4.68-.82-1.74-2.02-2.61-3.6-2.61-.77,0-1.5.24-2.19.73-1.76,1.3-2.65,3.62-2.65,6.94,0,1.71.32,3.2.96,4.45.79,1.64,1.97,2.45,3.53,2.45.77,0,1.51-.24,2.22-.73,1.81-1.28,2.72-3.46,2.72-6.55"/>
  <path class="cls-1" d="M52.64,29.86c-.72.31-1.34.46-1.88.46-1.25,0-1.97-.82-2.15-2.45-.74,1.01-1.38,1.69-1.92,2.04-.72.5-1.6.76-2.64.76-4.58,0-6.86-2.92-6.86-8.76,0-2.04.55-3.81,1.64-5.32,1.22-1.63,2.83-2.45,4.81-2.45,2.32,0,3.94,1.15,4.85,3.45V5.17h1.27c.65,0,1.19.53,1.19,1.19v21.63c0,.87.24,1.3.73,1.3.1,0,.42-.05.96-.15v.73ZM48.27,22.02c0-1.58-.31-3-.92-4.25-.77-1.58-1.85-2.37-3.26-2.37-.69,0-1.34.23-1.95.69-1.74,1.27-2.61,3.71-2.61,7.3,0,1.53.31,2.88.92,4.05.77,1.45,1.85,2.18,3.26,2.18.74,0,1.43-.24,2.07-.73,1.66-1.25,2.49-3.54,2.49-6.88"/>
  <path class="cls-1" d="M69.03,29.86c-.71.31-1.34.46-1.88.46-1.25,0-1.97-.82-2.15-2.45-.74,1.01-1.38,1.69-1.92,2.04-.71.5-1.6.76-2.64.76-4.58,0-6.86-2.92-6.86-8.76,0-2.04.55-3.81,1.64-5.32,1.22-1.63,2.83-2.45,4.81-2.45,2.32,0,3.94,1.15,4.85,3.45V5.17h1.27c.66,0,1.19.53,1.19,1.19v21.63c0,.87.24,1.3.73,1.3.1,0,.42-.05.96-.15v.73ZM64.66,22.02c0-1.58-.31-3-.92-4.25-.77-1.58-1.85-2.37-3.26-2.37-.69,0-1.34.23-1.96.69-1.74,1.27-2.61,3.71-2.61,7.3,0,1.53.31,2.88.92,4.05.77,1.45,1.85,2.18,3.26,2.18.74,0,1.43-.24,2.07-.73,1.66-1.25,2.49-3.54,2.49-6.88"/>
  <path class="cls-1" d="M73.92,29.86c-.69.28-1.33.42-1.92.42s-1.12-.18-1.52-.55c-.4-.37-.59-.86-.59-1.48V5.17h1.15c.65,0,1.19.53,1.19,1.19v21.63c0,.87.24,1.3.73,1.3.05,0,.37-.05.96-.15v.73Z"/>
  <path class="cls-1" d="M87.26,26.95l-.07,1.72c-1.69,1.38-3.43,2.07-5.22,2.07-2.12,0-3.88-.86-5.29-2.57-1.33-1.61-1.99-3.5-1.99-5.67s.59-4.04,1.76-5.68c1.33-1.81,3.03-2.72,5.1-2.72,1.41,0,2.58.38,3.51,1.15.93.77,1.4,1.84,1.4,3.22,0,1.15-.73,2.11-2.19,2.88-1.36.59-2.72,1.16-4.1,1.73-1.46.69-2.19,1.5-2.19,2.42,0,.38.13.83.38,1.34.82,1.58,2.11,2.38,3.87,2.38s3.51-.75,5.02-2.26M84.27,18.05c0-.77-.19-1.44-.58-2.03-.46-.64-1.07-.96-1.84-.96-1.51,0-2.7.77-3.57,2.3-.71,1.28-1.07,2.73-1.07,4.37,0,.82.1,1.56.31,2.22.59-1.17,1.48-2.07,2.68-2.68.95-.38,1.88-.77,2.8-1.15.85-.46,1.27-1.15,1.27-2.07"/>
  <path class="cls-1" d="M16.14,28.06c-1.33.95-2.62,1.42-3.87,1.42-2.89,0-5.16-1.28-6.82-3.83-1.43-2.22-2.15-4.86-2.15-7.9s.74-5.78,2.22-7.98c1.69-2.5,4.03-3.74,7.02-3.76,2.73-.02,5.21,1.61,6.54,2.57v-.02s.06.06.1.09l-.68-1.3c-.3-.26-.61-.53-.88-.74-.05-.04-.1-.07-.15-.1-1.1-.86-2.44-1.65-4.82-1.94-3.78-.47-6.87,1.27-9.18,3.81C1.16,10.91,0,14.1,0,17.94s1.05,6.7,3.14,9.12c2.2,2.58,5.09,3.87,8.67,3.87,2.58,0,5.02-1.07,7.32-3.22l-.12-2.76c-.71,1.2-1.67,2.24-2.87,3.11"/>
  <path class="cls-1" d="M30.67,4.58c.02-.15,0-.28-.04-.35-.04-.07-.1-.08-.15-.05-.05.02-.08.08-.14.18-.06.1-.14.23-.25.33-.11.1-.24.18-.38.23-.14.06-.3.09-.37.14-.08.04-.08.09-.04.15.04.06.12.12.27.14.15.02.37-.01.54-.07.17-.06.3-.15.39-.27.09-.12.15-.28.17-.43M27.45,6.7c-.06,0-.12.04-.18.13-.18.28-.28.58-.65.69-.07.02-.17.04-.24.06-.07.02-.13.05-.15.09-.02.05,0,.12.07.17.07.06.21.11.38.1.17,0,.38-.07.54-.17.16-.1.27-.26.33-.42.06-.16.07-.33.04-.45-.02-.12-.08-.2-.14-.21M29.75,7.41c-.11.03-.17.09-.19.19-.02.1,0,.24.02.32.03.08.07.11.1.12.03,0,.06-.02.15-.12.09-.1.25-.27.32-.37.07-.1.06-.14-.03-.16-.09-.02-.25-.02-.36.02M47.95,4.79c-.09-.36-.23-.69-.44-.98-.2-.28-.45-.52-.75-.71-.3-.18-.64-.3-1.01-.36-.37-.06-.77-.07-1.19-.01-.38.05-.77.14-1.16.26-.42.14-.84.31-1.23.5-.37.18-.72.38-1.1.63-.18.12-.36.24-.55.38-.04-.02-.08-.05-.13-.08-.34-.19-.95-.53-1.58-.7-.63-.17-1.28-.16-1.89-.03s-1.2.39-1.69.71c-.49.32-.88.69-1.33,1.22-.46.53-.98,1.23-1.41,1.78-.43.55-.77.96-1.18,1.34-.4.38-.86.71-1.35.97-.49.25-1,.42-1.45.52-.45.1-.84.13-1.23.13-.39,0-.77-.03-1.15-.1-.37-.07-.74-.19-1.1-.37-.36-.18-.72-.42-1.07-.75-.34-.33-.68-.75-.96-1.22-.28-.47-.51-1-.61-1.55-.11-.55-.09-1.13.01-1.66.1-.53.3-1,.57-1.43.24-.4.55-.76.88-1.06.03-.02.07-.03.1-.05.28-.12.49-.13.7-.09.21.04.42.14.58.31.16.16.28.4.31.64.04.33-.09.61-.29.8-.48.45-1.38.23-1.37-.42,0-.19.09-.38.15-.5.06-.12.11-.16.05-.15-.06.02-.21.09-.33.23-.12.14-.19.34-.18.57,0,.23.1.49.27.68.17.19.41.31.7.33.59.04,1.24-.28,1.48-.83.12-.27.17-.61.09-.92-.07-.31-.27-.59-.52-.76-.25-.17-.57-.23-.88-.23-.16,0-.32.02-.47.06.27-.21.55-.38.85-.54.42-.22.86-.39,1.32-.5.46-.11.94-.16,1.35-.16.41,0,.75.07,1.12.18.37.12.77.28,1.11.5.34.22.62.49.83.72.2.23.33.43.44.55.11.13.19.18.3.19.1,0,.22-.04.36-.08.14-.04.31-.08.48-.06.17.02.33.1.49.25.16.16.3.39.38.63.08.24.09.47.06.66-.03.19-.09.33-.17.45-.07.11-.16.2-.17.23,0,.03.07,0,.21-.12.14-.13.35-.35.47-.62.12-.27.17-.58.1-.89-.07-.31-.25-.63-.5-.84-.25-.21-.55-.32-.82-.35-.27-.03-.51.03-.63.05-.12.02-.12,0-.3-.25-.19-.24-.56-.7-1.09-1.06-.53-.36-1.21-.61-1.84-.74-.63-.12-1.2-.11-1.75-.02-.55.09-1.08.24-1.59.45-.51.21-1.01.48-1.44.8-.44.32-.81.7-1.12,1.08-.3.39-.54.78-.71,1.19-.17.41-.28.85-.34,1.28s-.06.87-.02,1.28c.05.42.15.81.32,1.23.17.42.4.86.72,1.3.33.44.75.89,1.13,1.21.19.15.37.28.58.39-.36-.07-.71-.16-1.05-.26-.61-.18-1.18-.41-1.73-.66-.54-.25-1.06-.54-1.55-.84-.48-.3-.92-.63-1.3-.96-.09-.08-.18-.16-.27-.24l.68,1.3c.19.13.38.27.58.4.41.26,1.36.94,1.44,1.01.37.32.76.64,1.53,1.08.42.24.96.52,1.56.8.51.24,1.08.48,1.69.7.67.25,1.36.46,2.06.64.68.18,1.38.32,2.09.43.7.11,1.4.18,2.08.21.71.04,1.41.04,2.07,0,.64-.03,1.24-.1,1.83-.19.59-.09,1.15-.21,1.71-.34.56-.14,1.13-.29,1.73-.5.6-.2,1.22-.45,1.91-.77.7-.33,1.47-.74,2.2-1.18.68-.41,1.33-.84,1.87-1.27.57-.45,1.02-.88,1.37-1.3.36-.43.62-.85.8-1.26.18-.4.29-.8.33-1.17.05-.41.02-.79-.07-1.15M30.08,10.38c.65-.29,1.21-.65,1.71-1.12.5-.47.95-1.03,1.41-1.63.46-.6.93-1.23,1.34-1.7.41-.46.75-.75,1.14-.99.38-.25.81-.45,1.27-.56.46-.11.96-.13,1.38-.08.42.05.76.17,1.06.31.24.11.43.23.57.32-.03.02-.06.04-.08.06-.27.21-.62.5-.99.8-.66.53-1.38,1.12-2.12,1.67-.56.41-1.13.8-1.71,1.15-.57.34-1.15.65-1.74.9-.58.25-1.17.45-1.79.6-.47.12-.97.21-1.48.28.01,0,.02,0,.03-.01M47.43,5.88c-.04.32-.13.65-.28,1v.02s-.44.75-.44.75c-.08.12-.17.24-.27.36-.33.39-.75.8-1.28,1.21-.52.41-1.15.83-1.81,1.23-.71.42-1.45.82-2.14,1.15-.33.16-.65.29-.96.42l-.81.3-.08.03c-.58.19-1.13.35-1.68.48-.56.13-1.11.25-1.66.33-.56.09-1.14.15-1.77.18-.63.03-1.31.03-2.01,0-.66-.03-1.34-.1-2.02-.21-.68-.1-1.36-.25-2.03-.42-.7-.18-1.37-.39-2-.62-.16-.06-.32-.12-.47-.18.4.1.82.2,1.25.28.58.11,1.21.19,1.89.22.67.04,1.38.04,2.14-.02.75-.05,1.55-.15,2.35-.29.82-.14,1.64-.33,2.41-.54.73-.2,1.43-.44,2.08-.69.71-.27,1.37-.57,1.97-.87.58-.29,1.11-.59,1.58-.87.47-.28.87-.54,1.18-.75.31-.21.54-.38.73-.52.2-.15.33-.26.47-.37.13-.1.15-.29.04-.42-.1-.13-.29-.15-.42-.04-.14.12-.29.23-.46.36-.18.13-.4.29-.71.5-.31.21-.7.46-1.15.74-.45.27-.97.57-1.54.85-.59.3-1.23.58-1.92.85-.63.24-1.31.47-2.02.67-.76.21-1.56.39-2.35.53-.78.14-1.56.24-2.29.29-.73.05-1.42.05-2.07.02-.64-.04-1.24-.11-1.81-.22-.89-.16-1.7-.4-2.49-.65.2.04.41.07.62.1.69.09,1.42.13,2.15.14.78,0,1.56-.04,2.29-.13.71-.08,1.38-.2,2.02-.36.64-.16,1.26-.37,1.88-.64.61-.26,1.21-.58,1.81-.94.59-.36,1.18-.75,1.76-1.18.75-.55,1.48-1.15,2.14-1.69.33-.27.64-.52.97-.78l.89-.67c.09-.06.18-.12.27-.18.34-.23.68-.41,1.03-.59.37-.18.76-.34,1.15-.47.35-.11.71-.2,1.05-.24.36-.04.7-.04,1.02.01.3.05.57.14.8.28.23.14.42.32.57.54.16.23.28.49.35.78.07.29.09.61.05.95"/>
</svg>